<svg xmlns="http://www.w3.org/2000/svg" width="760" height="220" viewBox="0 0 760 220" role="img" aria-label="Aktivitaetsverlauf">
<rect x="0.5" y="0.5" width="759" height="219" rx="14" fill="#0a0118" stroke="#b400ff" stroke-opacity="0.45"/>
<text x="16" y="26" font-family="Segoe UI,Helvetica,Arial,sans-serif" font-size="16" font-weight="700" fill="#ff00e5">Beitraege der letzten 31 Tage</text>
<text x="744" y="26" text-anchor="end" font-family="Segoe UI,Arial,sans-serif" font-size="13" fill="#00f0ff">2998 Beitraege</text>
<defs><linearGradient id="bar" x1="0" y1="0" x2="0" y2="1"><stop offset="0%" stop-color="#00f0ff"/><stop offset="100%" stop-color="#b400ff"/></linearGradient></defs>
<line x1="16" y1="190.0" x2="744" y2="190.0" stroke="#b400ff" stroke-opacity="0.3"/>
<rect x="16.00" y="129.40" width="20.58" height="60.60" rx="1.5" fill="url(#bar)"><title>2026-09-10: 67</title></rect>
<rect x="39.58" y="133.02" width="20.58" height="56.98" rx="1.5" fill="url(#bar)"><title>2026-09-11: 63</title></rect>
<rect x="63.16" y="132.11" width="20.58" height="57.89" rx="1.5" fill="url(#bar)"><title>2026-09-12: 64</title></rect>
<rect x="86.74" y="142.97" width="20.58" height="47.03" rx="1.5" fill="url(#bar)"><title>2026-09-13: 52</title></rect>
<rect x="110.32" y="178.24" width="20.58" height="11.76" rx="1.5" fill="url(#bar)"><title>2026-09-14: 13</title></rect>
<rect x="133.90" y="122.17" width="20.58" height="67.83" rx="1.5" fill="url(#bar)"><title>2026-09-15: 75</title></rect>
<rect x="157.48" y="132.11" width="20.58" height="57.89" rx="1.5" fill="url(#bar)"><title>2026-09-16: 64</title></rect>
<rect x="181.06" y="139.35" width="20.58" height="50.65" rx="1.5" fill="url(#bar)"><title>2026-09-17: 56</title></rect>
<rect x="204.65" y="85.08" width="20.58" height="104.92" rx="1.5" fill="url(#bar)"><title>2026-09-18: 116</title></rect>
<rect x="228.23" y="66.99" width="20.58" height="123.01" rx="1.5" fill="url(#bar)"><title>2026-09-19: 136</title></rect>
<rect x="251.81" y="97.75" width="20.58" height="92.25" rx="1.5" fill="url(#bar)"><title>2026-09-20: 102</title></rect>
<rect x="275.39" y="111.31" width="20.58" height="78.69" rx="1.5" fill="url(#bar)"><title>2026-09-21: 87</title></rect>
<rect x="298.97" y="55.24" width="20.58" height="134.76" rx="1.5" fill="url(#bar)"><title>2026-09-22: 149</title></rect>
<rect x="322.55" y="74.23" width="20.58" height="115.77" rx="1.5" fill="url(#bar)"><title>2026-09-23: 128</title></rect>
<rect x="346.13" y="67.90" width="20.58" height="122.10" rx="1.5" fill="url(#bar)"><title>2026-09-24: 135</title></rect>
<rect x="369.71" y="68.80" width="20.58" height="121.20" rx="1.5" fill="url(#bar)"><title>2026-09-25: 134</title></rect>
<rect x="393.29" y="89.61" width="20.58" height="100.39" rx="1.5" fill="url(#bar)"><title>2026-09-26: 111</title></rect>
<rect x="416.87" y="90.51" width="20.58" height="99.49" rx="1.5" fill="url(#bar)"><title>2026-09-27: 110</title></rect>
<rect x="440.45" y="53.43" width="20.58" height="136.57" rx="1.5" fill="url(#bar)"><title>2026-09-28: 151</title></rect>
<rect x="464.03" y="95.94" width="20.58" height="94.06" rx="1.5" fill="url(#bar)"><title>2026-09-29: 104</title></rect>
<rect x="487.61" y="114.03" width="20.58" height="75.97" rx="1.5" fill="url(#bar)"><title>2026-09-30: 84</title></rect>
<rect x="511.19" y="184.57" width="20.58" height="5.43" rx="1.5" fill="url(#bar)"><title>2026-10-01: 6</title></rect>
<rect x="534.77" y="53.43" width="20.58" height="136.57" rx="1.5" fill="url(#bar)"><title>2026-10-02: 151</title></rect>
<rect x="558.35" y="79.66" width="20.58" height="110.34" rx="1.5" fill="url(#bar)"><title>2026-10-03: 122</title></rect>
<rect x="581.94" y="123.97" width="20.58" height="66.03" rx="1.5" fill="url(#bar)"><title>2026-10-04: 73</title></rect>
<rect x="605.52" y="121.26" width="20.58" height="68.74" rx="1.5" fill="url(#bar)"><title>2026-10-05: 76</title></rect>
<rect x="629.10" y="57.95" width="20.58" height="132.05" rx="1.5" fill="url(#bar)"><title>2026-10-06: 146</title></rect>
<rect x="652.68" y="96.84" width="20.58" height="93.16" rx="1.5" fill="url(#bar)"><title>2026-10-07: 103</title></rect>
<rect x="676.26" y="85.99" width="20.58" height="104.01" rx="1.5" fill="url(#bar)"><title>2026-10-08: 115</title></rect>
<rect x="699.84" y="48.00" width="20.58" height="142.00" rx="1.5" fill="url(#bar)"><title>2026-10-09: 157</title></rect>
<rect x="723.42" y="146.59" width="20.58" height="43.41" rx="1.5" fill="url(#bar)"><title>2026-10-10: 48</title></rect>
<text x="16" y="212" font-family="Segoe UI,Arial,sans-serif" font-size="11" fill="#b9a7d6">2026-09-10</text>
<text x="744" y="212" text-anchor="end" font-family="Segoe UI,Arial,sans-serif" font-size="11" fill="#b9a7d6">2026-10-10</text>
</svg>