<svg xmlns="http://www.w3.org/2000/svg" width="480" height="204" viewBox="0 0 480 204" role="img" aria-label="Meistgenutzte Sprachen">
<rect x="0.5" y="0.5" width="479" height="203" rx="14" fill="#0a0118" stroke="#b400ff" stroke-opacity="0.45"/>
<text x="16" y="28" font-family="Segoe UI,Helvetica,Arial,sans-serif" font-size="16" font-weight="700" fill="#ff00e5">Meistgenutzte Sprachen</text>
<clipPath id="clip"><rect x="16" y="42" width="448" height="14" rx="7"/></clipPath>
<g clip-path="url(#clip)">
<rect x="16.00" y="42" width="363.34" height="14" fill="#3178c6"/>
<rect x="378.74" y="42" width="31.42" height="14" fill="#f1e05a"/>
<rect x="409.56" y="42" width="21.45" height="14" fill="#e34c26"/>
<rect x="430.41" y="42" width="15.75" height="14" fill="#3572A5"/>
<rect x="445.56" y="42" width="5.67" height="14" fill="#00b3bd"/>
<rect x="450.62" y="42" width="4.44" height="14" fill="#563d7c"/>
<rect x="454.47" y="42" width="3.89" height="14" fill="#89e051"/>
<rect x="457.76" y="42" width="2.70" height="14" fill="#336790"/>
<rect x="459.86" y="42" width="4.74" height="14" fill="#6b7280"/>
</g>
<circle cx="22.0" cy="74.0" r="5" fill="#3178c6"/>
<text x="34.0" y="78.0" font-family="Segoe UI,Arial,sans-serif" font-size="13" fill="#00f0ff"><tspan font-weight="600">TypeScript</tspan> <tspan fill="#b9a7d6">81.0%</tspan></text>
<circle cx="246.0" cy="74.0" r="5" fill="#f1e05a"/>
<text x="258.0" y="78.0" font-family="Segoe UI,Arial,sans-serif" font-size="13" fill="#00f0ff"><tspan font-weight="600">JavaScript</tspan> <tspan fill="#b9a7d6">6.9%</tspan></text>
<circle cx="22.0" cy="98.0" r="5" fill="#e34c26"/>
<text x="34.0" y="102.0" font-family="Segoe UI,Arial,sans-serif" font-size="13" fill="#00f0ff"><tspan font-weight="600">HTML</tspan> <tspan fill="#b9a7d6">4.7%</tspan></text>
<circle cx="246.0" cy="98.0" r="5" fill="#3572A5"/>
<text x="258.0" y="102.0" font-family="Segoe UI,Arial,sans-serif" font-size="13" fill="#00f0ff"><tspan font-weight="600">Python</tspan> <tspan fill="#b9a7d6">3.4%</tspan></text>
<circle cx="22.0" cy="122.0" r="5" fill="#00b3bd"/>
<text x="34.0" y="126.0" font-family="Segoe UI,Arial,sans-serif" font-size="13" fill="#00f0ff"><tspan font-weight="600">TeX</tspan> <tspan fill="#b9a7d6">1.1%</tspan></text>
<circle cx="246.0" cy="122.0" r="5" fill="#563d7c"/>
<text x="258.0" y="126.0" font-family="Segoe UI,Arial,sans-serif" font-size="13" fill="#00f0ff"><tspan font-weight="600">CSS</tspan> <tspan fill="#b9a7d6">0.9%</tspan></text>
<circle cx="22.0" cy="146.0" r="5" fill="#89e051"/>
<text x="34.0" y="150.0" font-family="Segoe UI,Arial,sans-serif" font-size="13" fill="#00f0ff"><tspan font-weight="600">Shell</tspan> <tspan fill="#b9a7d6">0.7%</tspan></text>
<circle cx="246.0" cy="146.0" r="5" fill="#336790"/>
<text x="258.0" y="150.0" font-family="Segoe UI,Arial,sans-serif" font-size="13" fill="#00f0ff"><tspan font-weight="600">PLpgSQL</tspan> <tspan fill="#b9a7d6">0.5%</tspan></text>
<circle cx="22.0" cy="170.0" r="5" fill="#6b7280"/>
<text x="34.0" y="174.0" font-family="Segoe UI,Arial,sans-serif" font-size="13" fill="#00f0ff"><tspan font-weight="600">Other</tspan> <tspan fill="#b9a7d6">0.9%</tspan></text>
</svg>